<svg version="1.1" id="Layer_1" xmlns="http://www.w3.org/2000/svg" xmlns:xlink="http://www.w3.org/1999/xlink" x="0px" y="0px"
	 width="100%" viewBox="0 0 310 311" enable-background="new 0 0 310 311" xml:space="preserve">
<path fill="#FFFFFF" opacity="1.000000" stroke="none" 
	d="
M147.000000,312.000000 
	C98.000023,312.000000 49.500046,312.000000 1.000052,312.000000 
	C1.000035,208.333405 1.000035,104.666809 1.000017,1.000163 
	C104.333214,1.000109 207.666428,1.000109 310.999725,1.000054 
	C310.999817,104.666496 310.999817,208.332993 310.999908,311.999756 
	C256.500000,312.000000 202.000000,312.000000 147.000000,312.000000 
M188.533051,169.940384 
	C194.496658,168.677628 194.839935,168.277496 193.906372,163.412521 
	C194.074295,163.118210 194.242203,162.823898 194.432983,162.433380 
	C194.432983,162.433380 194.529144,162.410278 195.003662,162.192963 
	C195.299866,162.016159 195.596069,161.839371 196.201126,162.240341 
	C198.204926,160.922760 200.156586,159.515717 202.225708,158.310242 
	C204.807190,156.806244 207.485443,155.468338 210.363297,154.833511 
	C210.438065,156.177002 210.512833,157.520508 210.278442,159.602432 
	C210.382034,160.115234 210.485626,160.628021 210.439926,161.876572 
	C210.489182,162.872330 210.538422,163.868073 210.261475,165.737411 
	C210.370224,168.205200 210.478973,170.672974 210.437378,174.046082 
	C210.496384,184.982941 210.555374,195.919815 210.287537,207.574387 
	C210.205048,210.659439 212.210251,210.090073 214.984207,209.843567 
	C218.294083,209.810410 221.603958,209.777252 225.788010,209.972610 
	C228.161926,209.972610 230.535828,209.972610 232.941879,209.972610 
	C232.941879,207.207214 232.941879,205.096832 233.018768,202.053635 
	C232.962326,171.358139 232.905884,140.662643 233.001129,109.118713 
	C232.988449,107.107315 232.975784,105.095909 232.970016,102.300476 
	C231.499878,97.673042 227.920288,98.512810 224.889587,99.707329 
	C220.344437,101.498749 216.053391,103.934860 211.654282,106.096817 
	C212.344940,113.844269 204.128296,110.487038 201.574951,114.187248 
	C201.485352,114.317101 201.455154,114.487938 201.355087,114.750237 
	C202.126694,115.653755 202.935150,116.600410 203.658020,117.446869 
	C200.692017,118.374443 198.060715,119.197342 195.429413,120.020241 
	C195.791031,120.372078 196.152664,120.723907 196.514282,121.075745 
	C195.871796,122.677406 195.675339,124.863770 194.496826,125.762794 
	C191.781525,127.834190 188.489853,129.131699 185.631866,131.042130 
	C184.192276,132.004410 182.857254,133.445572 182.058975,134.975021 
	C180.582504,137.803848 179.535629,140.856903 177.916840,144.765366 
	C172.519089,139.069809 166.051926,134.832626 163.474533,128.904312 
	C159.843246,120.551987 152.469940,118.782150 146.647537,114.574379 
	C145.883667,112.163467 144.612854,108.023842 143.562286,108.078995 
	C138.207108,108.360161 137.657944,105.794136 138.907089,101.355721 
	C134.535049,100.953682 130.521423,100.584610 126.283920,100.194946 
	C126.283920,98.939461 126.283920,97.587051 126.283920,94.788956 
	C122.244263,97.578560 119.092987,99.754692 117.004578,101.196846 
	C117.004578,109.505501 117.004593,117.272491 117.004570,125.039474 
	C117.004539,134.369995 117.004440,143.700516 117.004433,153.031036 
	C117.004433,162.194946 117.365891,171.377151 116.902550,180.517578 
	C116.442757,189.588058 118.377991,198.601990 117.146393,207.678131 
	C117.005905,208.713394 118.348007,210.692108 119.376076,211.004501 
	C122.461624,211.942108 125.713081,212.492538 128.936279,212.769623 
	C131.673981,213.004990 134.494812,212.879715 137.219193,212.493317 
	C139.957733,212.104889 142.840469,211.589188 145.190491,210.283920 
	C145.921036,209.878159 145.116760,206.715912 145.023315,204.815186 
	C144.998779,204.316238 144.997833,203.815811 144.997772,203.316055 
	C144.996170,189.820129 144.957031,176.323929 145.048340,162.828613 
	C145.058975,161.256409 145.792267,159.689087 146.190536,158.119507 
	C146.763885,157.999985 147.337234,157.880463 147.910583,157.760941 
	C149.739075,160.585770 151.567581,163.410599 153.226364,165.973221 
	C155.946686,167.323608 158.596832,168.952621 161.460983,169.991928 
	C166.523392,171.828918 160.589096,176.321609 164.505829,178.850754 
	C170.586807,175.243805 172.784668,182.499924 177.885117,185.776901 
	C177.885117,182.923264 177.885117,181.322830 178.102356,179.225937 
	C178.660782,178.785629 179.219223,178.345322 180.672394,177.960602 
	C186.111023,178.990570 186.467010,175.757309 186.006317,171.319611 
	C186.219711,171.107086 186.356049,170.853180 186.458252,170.456085 
	C186.458252,170.456085 186.559448,170.411713 186.966583,170.265503 
	C187.169968,170.039978 187.422775,169.912552 188.533051,169.940384 
M69.442078,184.057587 
	C77.682571,192.317886 85.923065,200.578201 94.831680,209.508224 
	C94.831680,189.272049 94.831680,170.363541 94.831680,151.414795 
	C75.634888,151.414795 56.715851,151.414795 36.238930,151.414795 
	C47.827057,162.805466 58.383720,173.182251 69.442078,184.057587 
M156.408447,168.482300 
	C156.408447,168.482300 156.523331,168.412872 156.408447,168.482300 
z"/>
<path fill="#12295C" opacity="1.000000" stroke="none" 
	d="
M210.587677,164.863831 
	C210.538422,163.868073 210.489182,162.872330 210.732727,161.431137 
	C210.879532,160.278473 210.733566,159.571228 210.587601,158.863998 
	C210.512833,157.520508 210.438065,156.177002 210.359985,154.520966 
	C210.356674,154.208435 210.594208,154.062943 210.731415,153.959259 
	C210.897583,153.744583 210.979355,153.612244 210.944839,153.526917 
	C210.864944,153.329376 210.728790,153.154587 210.563141,152.538757 
	C210.556747,150.666977 210.602692,149.227005 210.787216,147.572861 
	C209.958801,147.582672 208.991806,147.806656 208.012390,148.015320 
	C208.000000,148.000000 208.028229,148.028046 207.694336,147.976807 
	C206.514664,148.570938 205.668869,149.216309 204.520935,149.994049 
	C202.758362,151.673187 201.163162,153.115921 199.869400,154.791412 
	C197.975967,157.243515 196.298599,159.862442 194.529144,162.410278 
	C194.529144,162.410278 194.432983,162.433380 194.063812,162.364624 
	C189.965500,163.813614 186.208710,165.307053 186.559448,170.411713 
	C186.559448,170.411713 186.458252,170.456085 186.088058,170.384232 
	C183.062943,172.339630 180.408035,174.366867 177.043579,176.935898 
	C174.681854,174.950775 170.903107,173.082901 169.267944,170.056763 
	C167.381485,166.565521 165.174942,165.389252 161.838470,165.198578 
	C161.981216,165.059158 161.678268,165.318726 161.649750,164.997711 
	C160.963150,164.246704 160.305069,163.816711 159.681854,163.322174 
	C159.716705,163.257629 159.589340,163.330414 159.582825,163.063828 
	C159.273270,162.667496 158.970245,162.537766 158.667145,162.371002 
	C158.667084,162.333969 158.593079,162.336395 158.663177,161.980957 
	C155.349045,157.555542 152.074814,153.384430 148.497009,149.492386 
	C147.684738,148.608765 145.819992,148.692612 144.220718,148.192200 
	C143.343048,148.377533 142.684341,148.701828 141.674316,149.072342 
	C140.847961,149.734879 139.930984,150.383743 139.973557,150.961960 
	C140.170166,153.632751 140.931580,156.281616 140.951782,158.942429 
	C141.058029,172.937195 141.038208,186.933334 140.983734,200.928711 
	C140.960068,207.010849 138.746887,208.730820 132.945435,207.493195 
	C131.817566,207.252594 130.508698,206.734985 129.536148,207.072861 
	C122.812576,209.408768 121.780228,205.082062 121.235809,200.163391 
	C121.053429,198.515686 121.012558,196.845551 121.011475,195.185593 
	C120.997429,173.692383 121.002213,152.199188 121.002319,130.705978 
	C121.002350,124.374641 120.923088,118.042046 121.023758,111.712311 
	C121.139748,104.419464 123.753021,102.670784 130.397720,105.141762 
	C131.605194,105.590790 132.954117,105.659508 134.454712,105.949539 
	C134.961212,106.151665 135.108185,106.394341 135.069641,107.041832 
	C135.018387,107.574127 135.010162,107.787918 134.976440,108.327362 
	C134.886398,109.435692 134.456924,110.593903 134.814896,110.941772 
	C137.746719,113.790794 140.715988,116.627861 143.924332,119.149940 
	C144.915421,119.929024 146.679123,119.725220 148.319855,120.040375 
	C148.846436,120.296074 149.004196,120.564079 149.127167,121.155853 
	C149.516663,121.590607 149.802917,121.782837 150.321259,122.041443 
	C150.850098,122.294579 151.008423,122.563011 151.014771,123.288765 
	C150.802475,124.914665 150.603714,126.164909 150.566757,126.397369 
	C152.947479,128.437973 155.885223,129.714417 156.277908,131.538712 
	C157.237045,135.994553 159.603683,135.234604 162.529266,134.374512 
	C162.584381,134.439575 162.708405,134.556641 162.532043,134.894012 
	C164.953064,138.681641 167.040161,142.736328 170.257401,145.452286 
	C176.360504,150.604446 176.791290,150.476669 182.573578,145.575287 
	C186.685165,142.090057 190.394684,138.101685 194.035065,134.111099 
	C194.868378,133.197617 194.679550,131.351685 194.979813,129.964767 
	C194.998489,129.994629 194.935806,129.962479 195.336548,129.975372 
	C200.619324,130.067627 202.339233,127.401955 201.940399,122.923584 
	C201.967300,122.973518 201.872253,122.911591 202.257080,122.936951 
	C205.837936,122.741776 207.157333,120.958214 206.930542,117.909744 
	C206.966766,117.962830 206.856659,117.896530 207.252899,117.923187 
	C208.730209,116.545898 209.811279,115.141937 210.943817,113.524040 
	C211.157181,113.025307 211.401855,112.886955 212.091461,112.925705 
	C217.604416,113.808304 218.170670,110.685852 217.859222,106.836029 
	C217.899704,106.904625 217.767471,106.815804 218.163010,106.867271 
	C219.615723,106.555115 220.729446,106.304688 221.720840,105.809380 
	C227.934662,102.704872 230.510239,103.648964 232.849442,109.967155 
	C232.905884,140.662643 232.962326,171.358139 232.731979,202.749512 
	C229.934738,205.544968 227.424286,207.644547 224.913834,209.744110 
	C221.603958,209.777252 218.294083,209.810410 214.458282,209.513550 
	C212.826385,208.407898 211.720383,207.632278 210.614380,206.856674 
	C210.555374,195.919815 210.496384,184.982941 210.803650,173.406403 
	C210.975845,170.132416 210.781754,167.498123 210.587677,164.863831 
z"/>
<path fill="#E93F22" opacity="1.000000" stroke="none" 
	d="
M69.191231,183.808319 
	C58.383720,173.182251 47.827057,162.805466 36.238930,151.414795 
	C56.715851,151.414795 75.634888,151.414795 94.831680,151.414795 
	C94.831680,170.363541 94.831680,189.272049 94.831680,209.508224 
	C85.923065,200.578201 77.682571,192.317886 69.191231,183.808319 
z"/>
<path fill="#F2F6F8" opacity="1.000000" stroke="none" 
	d="
M149.023941,120.913330 
	C149.004196,120.564079 148.846436,120.296074 148.187988,119.729294 
	C143.873932,115.565971 139.922531,111.782677 136.005280,107.705872 
	C135.730499,107.182686 135.421585,106.953011 135.112656,106.723328 
	C135.108185,106.394341 134.961212,106.151665 134.281555,105.598938 
	C129.685928,100.716591 124.671753,103.966759 120.223763,103.007904 
	C120.223763,138.990128 120.223763,174.227219 120.223763,209.583008 
	C127.635284,209.583008 134.719833,209.583008 142.025650,209.583008 
	C142.025650,189.223175 142.025650,169.124649 142.025650,149.026123 
	C142.684341,148.701828 143.343048,148.377533 144.378433,148.496109 
	C149.367783,153.404770 153.980423,157.870590 158.593079,162.336395 
	C158.593079,162.336395 158.667084,162.333969 158.738403,162.594757 
	C158.992615,163.140213 159.252487,163.298492 159.589340,163.330414 
	C159.589340,163.330414 159.716705,163.257629 159.800446,163.586060 
	C160.482208,164.382584 161.080246,164.850647 161.678268,165.318726 
	C161.678268,165.318726 161.981216,165.059158 161.961792,165.506866 
	C166.033203,170.034164 170.064865,174.176331 174.261963,178.143509 
	C175.162521,178.994751 176.661697,179.212723 177.885117,179.722412 
	C177.885117,181.322830 177.885117,182.923264 177.885117,185.776901 
	C172.784668,182.499924 170.586807,175.243805 164.505829,178.850754 
	C160.589096,176.321609 166.523392,171.828918 161.460983,169.991928 
	C158.596832,168.952621 155.946686,167.323608 153.226364,165.973221 
	C151.567581,163.410599 149.739075,160.585770 147.910583,157.760941 
	C147.337234,157.880463 146.763885,157.999985 146.190536,158.119507 
	C145.792267,159.689087 145.058975,161.256409 145.048340,162.828613 
	C144.957031,176.323929 144.996170,189.820129 144.997772,203.316055 
	C144.997833,203.815811 144.998779,204.316238 145.023315,204.815186 
	C145.116760,206.715912 145.921036,209.878159 145.190491,210.283920 
	C142.840469,211.589188 139.957733,212.104889 137.219193,212.493317 
	C134.494812,212.879715 131.673981,213.004990 128.936279,212.769623 
	C125.713081,212.492538 122.461624,211.942108 119.376076,211.004501 
	C118.348007,210.692108 117.005905,208.713394 117.146393,207.678131 
	C118.377991,198.601990 116.442757,189.588058 116.902550,180.517578 
	C117.365891,171.377151 117.004433,162.194946 117.004433,153.031036 
	C117.004440,143.700516 117.004539,134.369995 117.004570,125.039474 
	C117.004593,117.272491 117.004578,109.505501 117.004578,101.196846 
	C119.092987,99.754692 122.244263,97.578560 126.283920,94.788956 
	C126.283920,97.587051 126.283920,98.939461 126.283920,100.194946 
	C130.521423,100.584610 134.535049,100.953682 138.907089,101.355721 
	C137.657944,105.794136 138.207108,108.360161 143.562286,108.078995 
	C144.612854,108.023842 145.883667,112.163467 146.647537,114.574379 
	C152.469940,118.782150 159.843246,120.551987 163.474533,128.904312 
	C166.051926,134.832626 172.519089,139.069809 177.916840,144.765366 
	C179.535629,140.856903 180.582504,137.803848 182.058975,134.975021 
	C182.857254,133.445572 184.192276,132.004410 185.631866,131.042130 
	C188.489853,129.131699 191.781525,127.834190 194.496826,125.762794 
	C195.675339,124.863770 195.871796,122.677406 196.514282,121.075745 
	C196.152664,120.723907 195.791031,120.372078 195.429413,120.020241 
	C198.060715,119.197342 200.692017,118.374443 203.658020,117.446869 
	C202.935150,116.600410 202.126694,115.653755 201.355087,114.750237 
	C201.455154,114.487938 201.485352,114.317101 201.574951,114.187248 
	C204.128296,110.487038 212.344940,113.844269 211.654282,106.096817 
	C216.053391,103.934860 220.344437,101.498749 224.889587,99.707329 
	C227.920288,98.512810 231.499878,97.673042 232.510605,102.659805 
	C227.173798,103.847710 221.177200,100.465622 217.767471,106.815804 
	C217.767471,106.815804 217.899704,106.904625 217.552917,106.966736 
	C215.380539,108.984245 213.554932,110.939651 211.729340,112.895058 
	C211.401855,112.886955 211.157181,113.025307 210.642944,113.656822 
	C209.145966,115.301208 208.001312,116.598869 206.856659,117.896530 
	C206.856659,117.896530 206.966766,117.962830 206.628784,118.038948 
	C204.817947,119.713913 203.345108,121.312752 201.872253,122.911591 
	C201.872253,122.911591 201.967300,122.973518 201.627899,123.043472 
	C199.170944,125.396446 197.053375,127.679459 194.935806,129.962479 
	C194.935806,129.962479 194.998489,129.994629 194.669632,130.093521 
	C188.372726,136.095551 182.404678,141.998688 175.739822,148.591064 
	C171.293457,143.802475 167.000931,139.179550 162.708405,134.556641 
	C162.708405,134.556641 162.584381,134.439575 162.354065,134.111023 
	C158.425278,130.159363 154.726791,126.536232 151.028320,122.913109 
	C151.008423,122.563011 150.850098,122.294579 150.238098,121.783844 
	C149.623230,121.277702 149.323578,121.095520 149.023941,120.913330 
z"/>
<path fill="#3A4A67" opacity="1.000000" stroke="none" 
	d="
M177.993744,179.474182 
	C176.661697,179.212723 175.162521,178.994751 174.261963,178.143509 
	C170.064865,174.176331 166.033203,170.034164 161.819031,165.646286 
	C165.174942,165.389252 167.381485,166.565521 169.267944,170.056763 
	C170.903107,173.082901 174.681854,174.950775 177.043579,176.935898 
	C180.408035,174.366867 183.062943,172.339630 186.066589,170.435135 
	C186.356049,170.853180 186.219711,171.107086 185.641602,171.672058 
	C183.443802,173.984695 181.610733,175.944870 179.777664,177.905029 
	C179.219223,178.345322 178.660782,178.785629 177.993744,179.474182 
z"/>
<path fill="#F2F6F8" opacity="1.000000" stroke="none" 
	d="
M210.648621,147.787033 
	C210.602692,149.227005 210.556747,150.666977 210.426682,152.809357 
	C210.426422,153.695496 210.510315,153.879211 210.594208,154.062943 
	C210.594208,154.062943 210.356674,154.208435 210.239288,154.133575 
	C207.485443,155.468338 204.807190,156.806244 202.225708,158.310242 
	C200.156586,159.515717 198.204926,160.922760 196.176300,161.656189 
	C199.197006,157.887039 202.242523,154.702026 205.522797,151.284439 
	C206.514435,150.043930 207.271332,149.035980 208.028229,148.028046 
	C208.028229,148.028046 208.000000,148.000000 208.450195,147.978394 
	C209.483139,147.900192 210.065872,147.843613 210.648621,147.787033 
z"/>
<path fill="#3A4A67" opacity="1.000000" stroke="none" 
	d="
M205.288055,151.517014 
	C202.242523,154.702026 199.197006,157.887039 196.021881,161.367310 
	C195.596069,161.839371 195.299866,162.016159 194.766403,162.301620 
	C196.298599,159.862442 197.975967,157.243515 199.869400,154.791412 
	C201.163162,153.115921 202.758362,151.673187 204.625427,150.411591 
	C205.117401,150.970184 205.202728,151.243591 205.288055,151.517014 
z"/>
<path fill="#18294A" opacity="1.000000" stroke="none" 
	d="
M218.163010,106.867271 
	C221.177200,100.465622 227.173798,103.847710 232.507141,103.051819 
	C232.975784,105.095909 232.988449,107.107315 232.925293,109.542938 
	C230.510239,103.648964 227.934662,102.704872 221.720840,105.809380 
	C220.729446,106.304688 219.615723,106.555115 218.163010,106.867271 
z"/>
<path fill="#525E79" opacity="1.000000" stroke="none" 
	d="
M225.350922,209.858368 
	C227.424286,207.644547 229.934738,205.544968 232.693542,203.215912 
	C232.941879,205.096832 232.941879,207.207214 232.941879,209.972610 
	C230.535828,209.972610 228.161926,209.972610 225.350922,209.858368 
z"/>
<path fill="#3A4A67" opacity="1.000000" stroke="none" 
	d="
M186.763016,170.338608 
	C186.208710,165.307053 189.965500,163.813614 194.052383,162.412720 
	C194.242203,162.823898 194.074295,163.118210 193.519379,163.781219 
	C191.329926,166.061020 189.527481,167.972122 187.725037,169.883224 
	C187.422775,169.912552 187.169968,170.039978 186.763016,170.338608 
z"/>
<path fill="#F2F6F8" opacity="1.000000" stroke="none" 
	d="
M180.225037,177.932816 
	C181.610733,175.944870 183.443802,173.984695 185.583099,171.882721 
	C186.467010,175.757309 186.111023,178.990570 180.225037,177.932816 
z"/>
<path fill="#F2F6F8" opacity="1.000000" stroke="none" 
	d="
M188.129044,169.911804 
	C189.527481,167.972122 191.329926,166.061020 193.427704,164.020340 
	C194.839935,168.277496 194.496658,168.677628 188.129044,169.911804 
z"/>
<path fill="#525E79" opacity="1.000000" stroke="none" 
	d="
M210.424576,165.300629 
	C210.781754,167.498123 210.975845,170.132416 210.878815,172.953735 
	C210.478973,170.672974 210.370224,168.205200 210.424576,165.300629 
z"/>
<path fill="#525E79" opacity="1.000000" stroke="none" 
	d="
M210.450958,207.215530 
	C211.720383,207.632278 212.826385,208.407898 214.009827,209.464294 
	C212.210251,210.090073 210.205048,210.659439 210.450958,207.215530 
z"/>
<path fill="#525E79" opacity="1.000000" stroke="none" 
	d="
M210.433014,159.233215 
	C210.733566,159.571228 210.879532,160.278473 210.807373,161.063263 
	C210.485626,160.628021 210.382034,160.115234 210.433014,159.233215 
z"/>
<path fill="#F2F6F8" opacity="1.000000" stroke="none" 
	d="
M156.465881,168.447586 
	C156.523331,168.412872 156.408447,168.482300 156.465881,168.447586 
z"/>
<path fill="#1D2E50" opacity="1.000000" stroke="none" 
	d="
M141.674316,149.072342 
	C142.025650,169.124649 142.025650,189.223175 142.025650,209.583008 
	C134.719833,209.583008 127.635284,209.583008 120.223763,209.583008 
	C120.223763,174.227219 120.223763,138.990128 120.223763,103.007904 
	C124.671753,103.966759 129.685928,100.716591 134.064575,105.553177 
	C132.954117,105.659508 131.605194,105.590790 130.397720,105.141762 
	C123.753021,102.670784 121.139748,104.419464 121.023758,111.712311 
	C120.923088,118.042046 121.002350,124.374641 121.002319,130.705978 
	C121.002213,152.199188 120.997429,173.692383 121.011475,195.185593 
	C121.012558,196.845551 121.053429,198.515686 121.235809,200.163391 
	C121.780228,205.082062 122.812576,209.408768 129.536148,207.072861 
	C130.508698,206.734985 131.817566,207.252594 132.945435,207.493195 
	C138.746887,208.730820 140.960068,207.010849 140.983734,200.928711 
	C141.038208,186.933334 141.058029,172.937195 140.951782,158.942429 
	C140.931580,156.281616 140.170166,153.632751 139.973557,150.961960 
	C139.930984,150.383743 140.847961,149.734879 141.674316,149.072342 
z"/>
<path fill="#203152" opacity="1.000000" stroke="none" 
	d="
M162.532043,134.894012 
	C167.000931,139.179550 171.293457,143.802475 175.739822,148.591064 
	C182.404678,141.998688 188.372726,136.095551 194.650955,130.063660 
	C194.679550,131.351685 194.868378,133.197617 194.035065,134.111099 
	C190.394684,138.101685 186.685165,142.090057 182.573578,145.575287 
	C176.791290,150.476669 176.360504,150.604446 170.257401,145.452286 
	C167.040161,142.736328 164.953064,138.681641 162.532043,134.894012 
z"/>
<path fill="#203152" opacity="1.000000" stroke="none" 
	d="
M151.014771,123.288765 
	C154.726791,126.536232 158.425278,130.159363 162.298950,134.045959 
	C159.603683,135.234604 157.237045,135.994553 156.277908,131.538712 
	C155.885223,129.714417 152.947479,128.437973 150.566757,126.397369 
	C150.603714,126.164909 150.802475,124.914665 151.014771,123.288765 
z"/>
<path fill="#3A4A67" opacity="1.000000" stroke="none" 
	d="
M158.663177,161.980957 
	C153.980423,157.870590 149.367783,153.404770 144.597412,148.635071 
	C145.819992,148.692612 147.684738,148.608765 148.497009,149.492386 
	C152.074814,153.384430 155.349045,157.555542 158.663177,161.980957 
z"/>
<path fill="#203152" opacity="1.000000" stroke="none" 
	d="
M135.971130,107.999374 
	C139.922531,111.782677 143.873932,115.565971 147.957214,119.660355 
	C146.679123,119.725220 144.915421,119.929024 143.924332,119.149940 
	C140.715988,116.627861 137.746719,113.790794 134.814896,110.941772 
	C134.456924,110.593903 134.886398,109.435692 135.218704,108.326813 
	C135.486481,108.000610 135.971130,107.999374 135.971130,107.999374 
z"/>
<path fill="#203152" opacity="1.000000" stroke="none" 
	d="
M195.336548,129.975372 
	C197.053375,127.679459 199.170944,125.396446 201.600998,122.993546 
	C202.339233,127.401955 200.619324,130.067627 195.336548,129.975372 
z"/>
<path fill="#18294A" opacity="1.000000" stroke="none" 
	d="
M212.091461,112.925705 
	C213.554932,110.939651 215.380539,108.984245 217.512436,106.898140 
	C218.170670,110.685852 217.604416,113.808304 212.091461,112.925705 
z"/>
<path fill="#203152" opacity="1.000000" stroke="none" 
	d="
M202.257080,122.936951 
	C203.345108,121.312752 204.817947,119.713913 206.592560,117.985870 
	C207.157333,120.958214 205.837936,122.741776 202.257080,122.936951 
z"/>
<path fill="#203152" opacity="1.000000" stroke="none" 
	d="
M207.252899,117.923187 
	C208.001312,116.598869 209.145966,115.301208 210.591492,113.870758 
	C209.811279,115.141937 208.730209,116.545898 207.252899,117.923187 
z"/>
<path fill="#525E79" opacity="1.000000" stroke="none" 
	d="
M205.522797,151.284439 
	C205.202728,151.243591 205.117401,150.970184 204.927567,150.279221 
	C205.668869,149.216309 206.514664,148.570938 207.694336,147.976807 
	C207.271332,149.035980 206.514435,150.043930 205.522797,151.284439 
z"/>
<path fill="#525E79" opacity="1.000000" stroke="none" 
	d="
M210.787216,147.572861 
	C210.065872,147.843613 209.483139,147.900192 208.462585,147.993713 
	C208.991806,147.806656 209.958801,147.582672 210.787216,147.572861 
z"/>
<path fill="#3A4A67" opacity="1.000000" stroke="none" 
	d="
M161.649750,164.997711 
	C161.080246,164.850647 160.482208,164.382584 159.765594,163.650604 
	C160.305069,163.816711 160.963150,164.246704 161.649750,164.997711 
z"/>
<path fill="#525E79" opacity="1.000000" stroke="none" 
	d="
M210.731415,153.959259 
	C210.510315,153.879211 210.426422,153.695496 210.479004,153.241180 
	C210.728790,153.154587 210.864944,153.329376 210.944839,153.526917 
	C210.979355,153.612244 210.897583,153.744583 210.731415,153.959259 
z"/>
<path fill="#3A4A67" opacity="1.000000" stroke="none" 
	d="
M159.582825,163.063828 
	C159.252487,163.298492 158.992615,163.140213 158.738464,162.631775 
	C158.970245,162.537766 159.273270,162.667496 159.582825,163.063828 
z"/>
<path fill="#1D2E50" opacity="1.000000" stroke="none" 
	d="
M136.005280,107.705872 
	C135.971130,107.999374 135.486481,108.000610 135.244217,108.001160 
	C135.010162,107.787918 135.018387,107.574127 135.069641,107.041832 
	C135.421585,106.953011 135.730499,107.182686 136.005280,107.705872 
z"/>
<path fill="#203152" opacity="1.000000" stroke="none" 
	d="
M149.127167,121.155853 
	C149.323578,121.095520 149.623230,121.277702 150.006012,121.717484 
	C149.802917,121.782837 149.516663,121.590607 149.127167,121.155853 
z"/>
</svg>